<?xml version="1.0" encoding="UTF-8" standalone="no"?>
<!-- Created with Inkscape (http://www.inkscape.org/) -->

<svg
   xmlns:dc="http://purl.org/dc/elements/1.1/"
   xmlns:cc="http://creativecommons.org/ns#"
   xmlns:rdf="http://www.w3.org/1999/02/22-rdf-syntax-ns#"
   xmlns:svg="http://www.w3.org/2000/svg"
   xmlns="http://www.w3.org/2000/svg"
   version="1.1"
   width="320"
   height="240"
   id="svg2">
  <defs
     id="defs4" />
  <metadata
     id="metadata7">
    <rdf:RDF>
      <cc:Work
         rdf:about="">
        <dc:format>image/svg+xml</dc:format>
        <dc:type
           rdf:resource="http://purl.org/dc/dcmitype/StillImage" />
        <dc:title></dc:title>
      </cc:Work>
    </rdf:RDF>
  </metadata>
  <g
     transform="translate(215,143)"
     id="layer2"
     style="display:inline" />
  <g
     transform="translate(-2033,178.58557)"
     id="layer1">
    <g
       transform="matrix(8.6396301,0,0,8.6396301,-19984.93,2839.3335)"
       id="g5335"
       style="fill:#ffffff;fill-opacity:1">
      <path
         d="m 315,35.81546 a 3,3 0 1 1 -6,0 3,3 0 1 1 6,0 z"
         transform="matrix(-1,0,0,-1,2879.926,-292.60624)"
         id="path5337"
         style="fill:#ffffff;fill-opacity:1;fill-rule:nonzero;stroke:none" />
      <path
         d="m 315,35.81546 a 3,3 0 1 1 -6,0 3,3 0 1 1 6,0 z"
         transform="matrix(-1,0,0,-1,2883.926,-294.6062)"
         id="path5339"
         style="fill:#ffffff;fill-opacity:1;fill-rule:nonzero;stroke:none" />
      <path
         d="m 315,35.81546 a 3,3 0 1 1 -6,0 3,3 0 1 1 6,0 z"
         transform="matrix(-1,0,0,-1,2884.926,-298.6062)"
         id="path5341"
         style="fill:#ffffff;fill-opacity:1;fill-rule:nonzero;stroke:none" />
      <path
         d="m 315,35.81546 a 3,3 0 1 1 -6,0 3,3 0 1 1 6,0 z"
         transform="matrix(-1,0,0,-1,2880.926,-301.6062)"
         id="path5343"
         style="fill:#ffffff;fill-opacity:1;fill-rule:nonzero;stroke:none" />
      <path
         d="m 315,35.81546 a 3,3 0 1 1 -6,0 3,3 0 1 1 6,0 z"
         transform="matrix(-1,0,0,-1,2875.926,-300.6062)"
         id="path5345"
         style="fill:#ffffff;fill-opacity:1;fill-rule:nonzero;stroke:none" />
      <path
         d="m 315,35.81546 a 3,3 0 1 1 -6,0 3,3 0 1 1 6,0 z"
         transform="matrix(-1,0,0,-1,2873.926,-296.6062)"
         id="path5347"
         style="fill:#ffffff;fill-opacity:1;fill-rule:nonzero;stroke:none" />
      <path
         d="m 315,35.81546 a 3,3 0 1 1 -6,0 3,3 0 1 1 6,0 z"
         transform="matrix(-1,0,0,-1,2875.926,-293.6062)"
         id="path5349"
         style="fill:#ffffff;fill-opacity:1;fill-rule:nonzero;stroke:none" />
      <path
         d="m 315,35.81546 a 3,3 0 1 1 -6,0 3,3 0 1 1 6,0 z"
         transform="matrix(-1.3333333,0,0,-1.3333334,2982.926,-284.66771)"
         id="path5351"
         style="fill:#ffffff;fill-opacity:1;fill-rule:nonzero;stroke:none" />
      <path
         d="m 324,156.81546 a 1,1 0 1 1 -2,0 1,1 0 1 1 2,0 z"
         transform="translate(2248.926,-499.23712)"
         id="path5353"
         style="fill:#ffffff;fill-opacity:1;fill-rule:nonzero;stroke:none" />
      <path
         d="m 324,156.81546 a 1,1 0 1 1 -2,0 1,1 0 1 1 2,0 z"
         transform="translate(2242.926,-502.23712)"
         id="path5355"
         style="fill:#ffffff;fill-opacity:1;fill-rule:nonzero;stroke:none" />
      <path
         d="m 324,156.81546 a 1,1 0 1 1 -2,0 1,1 0 1 1 2,0 z"
         transform="translate(2236.926,-483.23712)"
         id="path5357"
         style="fill:#ffffff;fill-opacity:1;fill-rule:nonzero;stroke:none" />
      <path
         d="m 324,156.81546 a 1,1 0 1 1 -2,0 1,1 0 1 1 2,0 z"
         transform="translate(2252.926,-482.23712)"
         id="path5359"
         style="fill:#ffffff;fill-opacity:1;fill-rule:nonzero;stroke:none" />
      <path
         d="m 324,156.81546 a 1,1 0 1 1 -2,0 1,1 0 1 1 2,0 z"
         transform="translate(2237.926,-499.23712)"
         id="path5361"
         style="fill:#ffffff;fill-opacity:1;fill-rule:nonzero;stroke:none" />
    </g>
  </g>
</svg>
