<?xml version="1.0" standalone="no"?>
<!DOCTYPE svg PUBLIC "-//W3C//DTD SVG 20010904//EN"
 "http://www.w3.org/TR/2001/REC-SVG-20010904/DTD/svg10.dtd">
<svg version="1.0" xmlns="http://www.w3.org/2000/svg"
 width="260.000000pt" height="260.000000pt" viewBox="0 0 260.000000 260.000000"
 preserveAspectRatio="xMidYMid meet">
<metadata>
Created by potrace 1.11, written by Peter Selinger 2001-2013
</metadata>
<g transform="translate(0.000000,260.000000) scale(0.100000,-0.100000)"
fill="#000000" stroke="none">
<path d="M0 1300 l0 -1300 1300 0 1300 0 0 1300 0 1300 -1300 0 -1300 0 0
-1300z m773 513 l77 -6 10 -36 c11 -43 48 -222 85 -411 14 -74 28 -142 31
-150 3 -8 32 113 63 270 32 157 61 295 65 306 8 27 58 32 291 30 l160 -1 3
-28 c4 -33 -33 -219 -83 -417 -19 -74 -55 -232 -81 -350 -25 -118 -50 -219
-55 -224 -11 -12 -709 -20 -769 -9 l-45 9 -67 294 c-37 162 -86 374 -108 470
-39 170 -48 239 -33 254 8 8 339 7 456 -1z m1067 -418 c0 -107 3 -195 8 -194
4 0 87 88 185 195 l179 194 55 0 55 0 -64 -69 c-35 -38 -107 -117 -162 -175
l-98 -106 170 -227 171 -228 -46 -3 c-25 -2 -51 -1 -57 1 -7 3 -77 91 -157
196 -79 105 -147 191 -150 191 -3 0 -24 -16 -47 -36 l-42 -36 0 -159 0 -159
-45 0 -45 0 0 405 0 405 45 0 45 0 0 -195z"/>
</g>
</svg>
