<?xml version="1.0" encoding="UTF-8" standalone="no"?>
<!-- Created with Inkscape (http://www.inkscape.org/) -->

<svg
   xmlns:dc="http://purl.org/dc/elements/1.1/"
   xmlns:cc="http://creativecommons.org/ns#"
   xmlns:rdf="http://www.w3.org/1999/02/22-rdf-syntax-ns#"
   xmlns:svg="http://www.w3.org/2000/svg"
   xmlns="http://www.w3.org/2000/svg"
   xmlns:sodipodi="http://sodipodi.sourceforge.net/DTD/sodipodi-0.dtd"
   xmlns:inkscape="http://www.inkscape.org/namespaces/inkscape"
   width="1024px"
   height="768px"
   id="svg2856"
   sodipodi:version="0.32"
   inkscape:version="0.48.0 r9654"
   sodipodi:docname="favicon.svg"
   inkscape:output_extension="org.inkscape.output.svg.inkscape"
   version="1.1"
   inkscape:export-filename="E:\sandBox\www\usocrate\skins\vostok\images\youri_2-2.png"
   inkscape:export-xdpi="10.539929"
   inkscape:export-ydpi="10.539929">
  <defs
     id="defs2858">
    <linearGradient
       id="linearGradient3792">
      <stop
         style="stop-color:#7fcbd9;stop-opacity:1;"
         offset="0"
         id="stop3794" />
      <stop
         style="stop-color:#7fcbd9;stop-opacity:1;"
         offset="1"
         id="stop3796" />
    </linearGradient>
    <inkscape:perspective
       sodipodi:type="inkscape:persp3d"
       inkscape:vp_x="0 : 384 : 1"
       inkscape:vp_y="0 : 1000 : 0"
       inkscape:vp_z="1024 : 384 : 1"
       inkscape:persp3d-origin="512 : 256 : 1"
       id="perspective46" />
  </defs>
  <sodipodi:namedview
     id="base"
     pagecolor="#ffffff"
     bordercolor="#666666"
     borderopacity="1.0"
     inkscape:pageopacity="0.0"
     inkscape:pageshadow="2"
     inkscape:zoom="0.91796875"
     inkscape:cx="363.00443"
     inkscape:cy="493.04072"
     inkscape:current-layer="layer3"
     inkscape:document-units="px"
     showguides="true"
     inkscape:guide-bbox="true"
     inkscape:window-width="1440"
     inkscape:window-height="844"
     inkscape:window-x="-4"
     inkscape:window-y="-4"
     inkscape:grid-points="false"
     showgrid="false"
     inkscape:window-maximized="1"
     inkscape:snap-global="true" />
  <metadata
     id="metadata2861">
    <rdf:RDF>
      <cc:Work
         rdf:about="">
        <dc:format>image/svg+xml</dc:format>
        <dc:type
           rdf:resource="http://purl.org/dc/dcmitype/StillImage" />
        <dc:title></dc:title>
      </cc:Work>
    </rdf:RDF>
  </metadata>
  <g
     inkscape:groupmode="layer"
     id="layer3"
     inkscape:label="fond"
     style="display:inline">
    <rect
       style="fill:#3b6783;fill-opacity:1;display:inline"
       id="rect5539"
       width="178.10213"
       height="178.10213"
       x="0.18455556"
       y="18"
       inkscape:export-filename="E:\Mes documents\_temp\test.bmp.png"
       inkscape:export-xdpi="8.0900002"
       inkscape:export-ydpi="8.0900002" />
  </g>
  <g
     id="layer1"
     inkscape:label="Menu"
     inkscape:groupmode="layer"
     style="display:inline">
    <path
       id="path1996"
       d="m 123.72843,342.18442 c 3.83651,-19.14123 5.28104,-37.67993 4.39248,-56.37095 l -0.75505,-15.88217 3.87117,-4.28494 c 4.84223,-5.35979 5.75755,-7.78147 7.84565,-20.75774 l 1.67931,-10.43613 -2.63919,-1.92259 c -2.6231,-1.91075 -2.6297,-1.96357 -1.08247,-8.661 1.17766,-5.09754 1.26057,-7.29197 0.34048,-9.01118 -0.97259,-1.81733 -0.55181,-4.57221 2.10025,-13.75042 8.37409,-28.98102 11.51903,-54.09395 10.58547,-84.52649 -0.60775,-19.811025 -2.24456,-31.599864 -6.75923,-48.68267 -3.66536,-13.86914 -3.64461,-14.014759 2.20598,-15.487975 2.68717,-0.67665 4.88574,-1.575263 4.88574,-1.996917 0,-1.878437 -5.47644,-16.59293 -9.07151,-24.373974 -8.24964,-17.8552948 -24.34546,-37.786511 -39.79195,-49.273851 -12.457245,-9.26431 -33.924465,-17.74706 -53.194063,-21.01963 -11.210687,-1.9039 -47.2945193,-1.89416 -57.0001893,0.0153 -18.0457797,3.55045 -50.4858997,16.51113 -50.4858997,20.17046 0,0.73588 2.80929,3.60772 6.24287,6.38184 5.53209,4.4696 10.96306,10.0351602 32.44264,33.24663 3.06409,3.311164 7.95257,9.684605 10.8632497,14.163197 2.9107,4.478583 6.58329,9.852894 8.16136,11.942905 2.56223,3.393444 21.5473003,40.193959 21.5473003,41.767128 0,0.348732 -3.64395,5.012236 -8.09766,10.363306 -9.5712903,11.499811 -10.8879303,13.643681 -9.0694103,14.767561 0.71281,0.44056 1.4877,0.22591 1.722,-0.47696 0.78661,-2.35983 4.44987,-1.30734 7.8334603,2.25065 8.85962,9.31629 15.59042,30.49812 11.67579,36.74379 -0.90093,1.4374 -1.896,5.30064 -2.21126,8.58494 -0.77962,8.12178 -4.23286,16.7835 -9.39993,23.57771 -2.7332203,3.59391 -3.8743303,5.93085 -3.1228003,6.39532 0.6513503,0.40252 1.6114303,-0.0313 2.1335003,-0.96423 2.00307,-3.57926 6.99194,-3.34348 14.76629,0.69803 19.436244,10.10385 42.756467,20.75209 49.129073,22.43284 2.096929,0.55303 7.476896,2.04293 11.955491,3.31084 4.478578,1.26793 10.830025,2.92378 14.114318,3.6796 3.28431,0.75583 7.92575,2.11676 10.31433,3.02433 2.38858,0.90757 7.51859,2.48536 11.40005,3.50626 3.88147,1.02085 7.76097,2.21192 8.62112,2.64682 2.61387,1.32152 2.56096,3.29768 -0.11571,4.32512 l -2.53382,0.97255 2.98574,1.17068 c 3.50748,1.37521 3.58033,2.19281 1.27749,14.33245 -2.49816,13.16926 -4.51032,16.47918 -11.82216,19.44683 -4.16176,1.68911 -6.22218,3.18807 -6.63319,4.82568 -0.32789,1.30655 0.48979,8.69831 1.81709,16.42616 1.98661,11.56654 2.43013,18.46554 2.50842,39.02218 0.0525,13.73431 -0.24109,27.90294 -0.65205,31.48583 -0.71894,6.26759 -0.68867,6.3824 0.79873,3.03139 0.8503,-1.91558 2.7497,-9.48844 4.22086,-16.82862 z M 105.34172,207.67535 c -33.532482,-8.83809 -47.21821,-13.80277 -70.919011,-25.72693 -13.826391,-6.95625 -13.142601,-5.50238 -8.426771,-17.91685 6.52751,-17.18369 2.00383,-41.11443 -10.2939,-54.45586 -2.35122,-2.55078 -4.27495,-5.37131 -4.27495,-6.26781 0,-3.798747 19.80434,-18.864702 34.536898,-26.273559 14.283613,-7.183116 42.043724,-15.051091 71.132474,-20.160903 10.76252,-1.890576 14.21559,-2.152663 15.20007,-1.153642 0.97691,0.991359 0.80472,1.639106 -0.73878,2.778793 -1.94033,1.432717 -1.89418,1.849481 1.28473,11.598379 9.02401,27.674453 12.40931,47.028912 12.40335,70.912482 -0.003,15.45918 -0.47493,20.92617 -2.90014,33.65723 -2.7596,14.48662 -5.88193,26.85932 -8.43209,33.41354 -0.85045,2.18584 -1.70442,2.84462 -3.10933,2.39874 -1.06528,-0.3381 -2.25111,-0.10614 -2.63516,0.51513 -1.14779,1.85718 -5.70123,1.19516 -22.82739,-3.31874 z m 26.25605,-2.26926 c -0.34658,-0.86609 -0.60385,-0.60885 -0.65596,0.65597 -0.0471,1.14451 0.20946,1.78579 0.57025,1.42501 0.36078,-0.36079 0.39934,-1.29725 0.0856,-2.08098 z m -19.3417,-20.76587 c 1.40172,-3.68299 1.37771,-4.53259 -0.22307,-7.88948 -0.98665,-2.06907 -3.05354,-4.24087 -4.59304,-4.82615 -3.79111,-1.44141 -3.17019,-4.97718 0.8016,-4.5649 3.6558,0.37947 4.69436,-2.26407 2.31568,-5.89442 -1.70025,-2.59488 -1.69948,-2.83912 0.0128,-3.79702 1.00615,-0.56309 1.82939,-1.94135 1.82939,-3.06285 0,-1.82833 -0.64519,-1.97677 -6.2429,-1.43686 -8.022159,0.77375 -9.017419,1.77234 -3.56119,3.57305 2.40652,0.79423 4.37548,1.85439 4.37548,2.35598 0,1.17358 -5.90229,1.12833 -11.12859,-0.0851 -4.00085,-0.9291 -4.071445,-0.88976 -4.071445,2.26876 0,1.76777 -0.530131,4.20471 -1.178065,5.41534 -0.647896,1.21066 -0.90383,3.29366 -0.568692,4.62887 1.510279,6.01745 14.931512,18.54604 19.023302,17.75805 0.90107,-0.17377 2.34524,-2.1729 3.20926,-4.44298 z m 0.40147,-38.09074 c 1.06732,-0.0611 1.81217,-0.56864 1.65525,-1.12747 -0.28688,-1.02149 -8.41314,-0.97983 -11.95679,0.0611 -1.045,0.30703 -1.90001,1.04379 -1.90001,1.63731 0,0.67124 1.93895,0.78833 5.13048,0.30971 2.82175,-0.42315 6.00373,-0.81952 7.07107,-0.88081 z m -16.730616,-3.96174 c 2.099321,-2.25334 4.957606,-7.50283 6.107676,-11.21726 0.51309,-1.65718 1.34313,-1.92343 4.433,-1.42203 2.09091,0.3393 6.50976,-0.0884 9.81965,-0.95054 3.30987,-0.86211 7.2017,-1.27036 8.6485,-0.90727 2.14335,0.53794 2.83333,0.12684 3.72547,-2.21955 1.36268,-3.58418 -0.54917,-8.65571 -4.73011,-12.54747 -1.60379,-1.49285 -5.91429,-6.7207 -9.57892,-11.61743 l -6.66293,-8.903193 -4.15949,3.294363 c -2.73496,2.166165 -4.159501,4.17965 -4.159501,5.87929 0,2.70757 -3.548982,5.45149 -5.495199,4.24865 -0.609104,-0.37642 -0.847858,-1.50234 -0.530563,-2.502 0.427339,-1.34647 -0.419594,-2.12947 -3.267627,-3.0209 -3.183678,-0.996464 -4.49475,-0.871792 -7.627432,0.72536 -3.064217,1.56221 -4.544073,1.71849 -7.788921,0.82253 -2.836337,-0.78313 -5.678376,-0.73185 -9.733908,0.17577 -5.289436,1.18371 -5.727917,1.521 -5.727917,4.40611 0,6.83734 21.278653,21.35755 33.65723,22.96713 2.240072,0.29131 2.697665,0.92205 2.619075,3.61014 -0.05254,1.79141 -0.913944,5.08929 -1.914578,7.32856 -1.993415,4.46105 -0.878315,5.33264 2.366495,1.84974 z M 129.79345,89.756108 c -2.78669,-11.008843 -8.45986,-26.375512 -9.73744,-26.375512 -0.47896,0 1.87728,8.242655 5.23605,18.317 3.35881,10.074349 6.2894,18.156874 6.51247,17.961158 0.22305,-0.195683 -0.68191,-4.651899 -2.01108,-9.902646 z m -47.998712,5.443688 c 0.236587,-1.662589 1.546839,-2.762332 4.342872,-3.645234 2.202233,-0.695395 5.807931,-2.480117 8.01268,-3.966089 3.329794,-2.244242 5.030749,-2.638158 10.04437,-2.326209 4.66879,0.290516 6.0354,0.02616 6.03427,-1.167229 -0.002,-1.765628 -6.28506,-15.015115 -7.46719,-15.745678 -0.43007,-0.265802 -4.178395,0.339639 -8.329596,1.34541 -6.848401,1.659308 -7.578954,2.099987 -7.885622,4.756747 -0.29055,2.517076 -1.154794,3.165508 -6.157778,4.619893 -4.516812,1.313081 -6.325029,2.509332 -8.076335,5.343003 -2.993627,4.843803 -2.856154,6.32333 0.967918,10.417012 3.76764,4.033261 7.967008,4.214972 8.514411,0.368374 z"
       style="fill:#84c6f1;fill-opacity:1"
       sodipodi:nodetypes="cccccccssssssssssssssssssssssssssssssssscccsssssssccssssssssssssssccssccssssssssssssssccssssccsssssscccsssssssssssccsssccssssssssssc"
       inkscape:export-filename="C:\Travail\youri.png"
       inkscape:export-xdpi="47"
       inkscape:export-ydpi="47"
       inkscape:connector-curvature="0" />
  </g>
</svg>
